<!-- icons.svg: inline SVG sprite for UI icons -->
<svg xmlns="http://www.w3.org/2000/svg" style="display:none">
  <symbol id="icon-play" viewBox="0 0 24 24"><path fill="currentColor" d="M8 5v14l11-7z"/></symbol>
  <symbol id="icon-pause" viewBox="0 0 24 24"><path fill="currentColor" d="M6 19h4V5H6v14zm8-14v14h4V5h-4z"/></symbol>
  <symbol id="icon-save" viewBox="0 0 24 24"><path fill="currentColor" d="M17 3H5a2 2 0 0 0-2 2v14l4-4h10a2 2 0 0 0 2-2V5a2 2 0 0 0-2-2z"/></symbol>
  <symbol id="icon-export" viewBox="0 0 24 24"><path fill="currentColor" d="M5 20h14v-2H5v2zm7-18L5.33 9h3.67v6h4V9h3.67L12 2z"/></symbol>
  <symbol id="icon-brush" viewBox="0 0 24 24"><path fill="currentColor" d="M7 16c-1.66 0-3 1.34-3 3h2a1 1 0 0 1 1-1h8a1 1 0 0 1 1 1h2c0-1.66-1.34-3-3-3H7zM20.71 4.04a1 1 0 0 0-1.41 0l-2.3 2.3 2.12 2.12 2.3-2.29c.39-.39.39-1.02 0-1.41l-.71-.71z"/></symbol>
  <symbol id="icon-eraser" viewBox="0 0 24 24"><path fill="currentColor" d="M16.24 11.51l-8.48 8.49H3.76v-3.99l8.49-8.49 3.99 3.99zM20.71 7.04l-4.75-4.75a1.003 1.003 0 0 0-1.42 0L9.17 7.7l5.17 5.17 5.37-5.37c.39-.39.39-1.02 0-1.42z"/></symbol>
  <symbol id="icon-bucket" viewBox="0 0 24 24"><path fill="currentColor" d="M7 7h10v2H7V7zm-2 6h14v6H5v-6z"/></symbol>
</svg>
